<?xml version="1.0" encoding="UTF-8"?>
<svg version="1.1" xmlns="http://www.w3.org/2000/svg" width="512" height="512">
<path d="M0 0 C1.84531968 1.58702147 3.67111384 3.19270341 5.48681641 4.81347656 C6.88867188 6.06257813 6.88867188 6.06257813 8.31884766 7.33691406 C25.93881752 24.04120046 37.50849227 46.48035494 43.48681641 69.81347656 C43.48681641 70.47347656 43.48681641 71.13347656 43.48681641 71.81347656 C44.64697266 71.925625 45.80712891 72.03777344 47.00244141 72.15332031 C64.08161157 74.31262613 81.30767923 85.17043082 91.83837891 98.52783203 C94.53929905 102.19322549 97.04721727 105.97035496 99.48681641 109.81347656 C100.52128906 109.5234375 100.52128906 109.5234375 101.57666016 109.22753906 C102.51638672 108.96714844 103.45611328 108.70675781 104.42431641 108.43847656 C105.34083984 108.18324219 106.25736328 107.92800781 107.20166016 107.66503906 C108.28576172 107.38402344 109.36986328 107.10300781 110.48681641 106.81347656 C111.14625244 106.63703613 111.80568848 106.4605957 112.48510742 106.27880859 C134.06888537 100.92077472 155.70734114 105.64101433 174.48681641 116.81347656 C177.73757817 118.92479606 180.62410843 121.20415328 183.48681641 123.81347656 C184.71464844 124.90402344 184.71464844 124.90402344 185.96728516 126.01660156 C193.96919577 133.52217582 200.30980814 142.20226895 203.48681641 152.81347656 C204.16744141 152.76707031 204.84806641 152.72066406 205.54931641 152.67285156 C224.04775313 151.98407998 242.83134268 159.33873929 256.48681641 171.81347656 C257.31697266 172.56371094 258.14712891 173.31394531 259.00244141 174.08691406 C264.96987394 179.750615 269.45416804 185.65811074 273.48681641 192.81347656 C274.17904297 193.99683594 274.17904297 193.99683594 274.88525391 195.20410156 C284.09260711 212.05634802 285.39727227 233.39093451 280.98681641 251.93847656 C274.10849853 273.12852252 261.01330759 290.47267057 241.13134766 301.02441406 C223.2190434 310.0596122 205.73559935 310.0941795 186.17431641 309.93847656 C183.96924235 309.92842624 181.76416385 309.91930402 179.55908203 309.91113281 C174.20156205 309.88928312 168.84421038 309.85596842 163.48681641 309.81347656 C163.50252686 311.08465332 163.5182373 312.35583008 163.53442383 313.66552734 C163.58884891 318.395443 163.62321233 323.12533112 163.65161133 327.85546875 C163.66666928 329.9001125 163.68711997 331.94472411 163.71313477 333.98925781 C163.74964952 336.93334908 163.76657291 339.87701214 163.77978516 342.82128906 C163.79526901 343.73089386 163.81075287 344.64049866 163.82670593 345.57766724 C163.82834572 351.8044278 162.9418477 356.17530785 158.54931641 360.89550781 C157.86869141 361.4665625 157.18806641 362.03761719 156.48681641 362.62597656 C155.80619141 363.20992188 155.12556641 363.79386719 154.42431641 364.39550781 C151.20457234 366.75189309 148.45698847 366.94386116 144.59298706 366.97410583 C143.58375687 366.98415146 142.57452667 366.99419708 141.53471375 367.00454712 C140.42819962 367.01037811 139.32168549 367.01620911 138.18164062 367.0222168 C137.01547714 367.03200058 135.84931366 367.04178436 134.64781189 367.05186462 C130.77905421 367.08183813 126.91033118 367.10321083 123.04150391 367.12207031 C122.38233805 367.12536763 121.7231722 367.12866496 121.04403162 367.1320622 C114.82184379 367.1628493 108.59965096 367.18954466 102.37740898 367.20648098 C94.43284697 367.22836212 86.48896294 367.27027995 78.54467189 367.33991855 C72.95131506 367.38727382 67.35814036 367.41143001 61.76458943 367.41867787 C58.42770018 367.42361845 55.09217973 367.44159817 51.7553978 367.47842216 C48.02585065 367.51736094 44.29806179 367.51836665 40.56835938 367.51049805 C39.47399063 367.53049866 38.37962189 367.55049927 37.25209045 367.57110596 C29.86764747 367.50135149 24.99726571 365.83592602 19.48681641 360.81347656 C14.23084559 354.32006227 14.33795997 346.85341489 14.38916016 338.91503906 C14.39128258 337.66259903 14.39128258 337.66259903 14.39344788 336.38485718 C14.39901467 333.73602614 14.41156094 331.08728176 14.42431641 328.43847656 C14.4293357 326.63509237 14.43389786 324.83170685 14.43798828 323.02832031 C14.44897321 318.62333935 14.46621477 314.21842262 14.48681641 309.81347656 C13.18236572 309.82918701 11.87791504 309.84489746 10.53393555 309.86108398 C5.61179991 309.91611493 0.68969038 309.9500879 -4.23266602 309.97827148 C-6.34762166 309.99319379 -8.46254728 310.01353894 -10.57739258 310.03979492 C-28.01408266 310.25057264 -44.61109761 309.8634952 -60.51318359 301.81347656 C-61.49673828 301.32105469 -62.48029297 300.82863281 -63.49365234 300.32128906 C-82.16305919 290.22580127 -94.68180588 273.60012639 -101.57568359 253.75488281 C-103.88287756 245.57987343 -104.20251144 237.25518894 -104.51318359 228.81347656 C-105.11976807 228.77536865 -105.72635254 228.73726074 -106.35131836 228.69799805 C-112.72080393 228.19429029 -118.41075719 226.93062443 -124.45068359 224.87597656 C-125.35165771 224.57095215 -126.25263184 224.26592773 -127.1809082 223.95166016 C-159.54485776 212.52908972 -186.38726276 188.64370413 -201.51708984 157.83691406 C-209.97087891 139.75922276 -213.9440351 121.26842336 -213.88818359 101.31347656 C-213.88797211 100.6130423 -213.88776062 99.91260803 -213.88754272 99.19094849 C-213.85200045 87.3523404 -212.73641773 76.23324189 -209.51318359 64.81347656 C-209.34189941 64.1625 -209.17061523 63.51152344 -208.99414062 62.84082031 C-203.57739022 42.56833274 -191.78894352 24.90226134 -177.51318359 9.81347656 C-176.37429687 8.57791016 -176.37429687 8.57791016 -175.21240234 7.31738281 C-159.44099619 -9.2283968 -138.46342 -20.30051106 -116.51318359 -26.18652344 C-115.26537109 -26.52554688 -114.01755859 -26.86457031 -112.73193359 -27.21386719 C-73.44688408 -35.87733847 -30.76134524 -25.76999429 0 0 Z M63.48681641 190.81347656 C54.33459265 201.62304466 53.03194311 210.96570967 53.29931641 224.87597656 C53.31439685 226.23208142 53.32807929 227.58820258 53.34033203 228.94433594 C53.37545805 232.23447258 53.42465001 235.52375839 53.48681641 238.81347656 C54.47681641 238.81347656 55.46681641 238.81347656 56.48681641 238.81347656 C56.50663574 238.17434326 56.52645508 237.53520996 56.546875 236.87670898 C56.64345138 233.91779023 56.75258032 230.95945397 56.86181641 228.00097656 C56.89275391 226.99615234 56.92369141 225.99132812 56.95556641 224.95605469 C57.41587344 213.02643085 58.36419865 201.66159181 67.41259766 192.96191406 C75.47198497 186.60829998 83.87396207 184.28288368 94.06494141 184.99316406 C101.72918646 186.17413264 108.44273447 189.34738696 113.60009766 195.21972656 C118.47455984 201.92085056 120.68669231 207.60863677 120.90087891 215.96191406 C120.92024506 216.61930573 120.93961121 217.27669739 120.95956421 217.95401001 C121.01884102 220.03203791 121.06553435 222.11012281 121.11181641 224.18847656 C121.15004419 225.60646806 121.18909864 227.02443753 121.22900391 228.44238281 C121.32449811 231.89921117 121.40871829 235.35620639 121.48681641 238.81347656 C122.80681641 238.81347656 124.12681641 238.81347656 125.48681641 238.81347656 C125.60438399 234.37620479 125.67452357 229.93934128 125.73681641 225.50097656 C125.77033203 224.25767578 125.80384766 223.014375 125.83837891 221.73339844 C125.97013111 209.18400067 122.89926982 199.58819142 114.36181641 190.25097656 C106.27058427 182.36945238 97.07172631 180.43417834 86.16259766 180.53613281 C77.48976171 181.19051257 69.68514196 184.6937767 63.48681641 190.81347656 Z M80.48681641 285.81347656 C79.02441972 289.31051213 78.25565365 291.62876744 78.98681641 295.37597656 C80.46030879 298.07914882 80.46030879 298.07914882 83.58837891 300.28613281 C85.65114589 302.31626108 86.41739702 303.38269069 86.88232422 306.26782227 C86.85284395 309.10478962 86.65243068 311.86645897 86.36181641 314.68847656 C86.28705078 315.66300781 86.21228516 316.63753906 86.13525391 317.64160156 C85.94745084 320.03609071 85.73065094 322.42415282 85.48681641 324.81347656 C88.12681641 324.81347656 90.76681641 324.81347656 93.48681641 324.81347656 C93.41462891 324.15863281 93.34244141 323.50378906 93.26806641 322.82910156 C92.55330388 315.80060339 92.37590036 308.87513138 92.48681641 301.81347656 C93.11072266 301.51699219 93.73462891 301.22050781 94.37744141 300.91503906 C97.06543996 299.51130648 98.06687597 298.51136339 99.48681641 295.81347656 C100.01879652 291.02565556 100.21190655 288.94945112 97.61181641 284.87597656 C94.67439972 282.02495449 93.87534306 281.84532301 89.67431641 281.50097656 C85.43152367 281.57797825 83.34560088 282.53428261 80.48681641 285.81347656 Z " fill="#2D5FDE" transform="translate(221.51318359375,87.1865234375)"/>
<path d="M0 0 C8.50322656 7.20866483 14.40568594 14.46023346 19.01171875 24.66015625 C20.6051941 27.4889629 20.6051941 27.4889629 23.66796875 28.26171875 C27.2274315 28.24845367 29.24059984 27.53239842 32.4375 26 C49.13979392 18.64279323 65.59063938 17.98413467 82.8125 24.25 C102.05414664 32.17665486 113.75357147 44.98629722 122.5 63.51171875 C123.55651257 66.10468295 123.55651257 66.10468295 124.8125 67.25 C126.60175409 67.34562522 128.3916298 67.43456086 130.18261719 67.48876953 C150.84156607 68.16427869 168.66618116 75.42888567 183.0625 90.625 C195.61711714 105.4622748 200.22531426 122.83912346 199.03564453 141.91113281 C197.3177805 159.9167536 187.52972242 175.1524708 174.046875 186.59765625 C161.21258434 196.40672126 147.41652026 200.77298142 131.36328125 200.54296875 C130.22465134 200.53872391 129.08602142 200.53447906 127.91288757 200.53010559 C124.31667281 200.51346525 120.72104213 200.47584042 117.125 200.4375 C114.66993003 200.42243425 112.21485118 200.40874917 109.75976562 200.39648438 C103.77714829 200.36360988 97.7948659 200.31355888 91.8125 200.25 C91.79062622 198.49526367 91.79062622 198.49526367 91.76831055 196.70507812 C91.71003617 192.33628832 91.63280637 187.9679983 91.55004883 183.59960938 C91.51693596 181.71427565 91.48886218 179.82884604 91.46606445 177.94335938 C91.43226624 175.22224328 91.3799397 172.50199512 91.32421875 169.78125 C91.31463387 168.53075867 91.31463387 168.53075867 91.30485535 167.25500488 C91.1177493 159.69079921 89.42618466 152.70774897 83.8125 147.25 C78.8508781 144.47149174 74.49749481 143.81913864 68.8515625 143.4609375 C66.8125 143.25 66.8125 143.25 65.8125 142.25 C65.70228503 140.01496942 65.6565223 137.77672129 65.63671875 135.5390625 C65.61347782 134.13410031 65.5893589 132.72915242 65.56445312 131.32421875 C65.52966772 129.11498048 65.50019266 126.90625313 65.48657227 124.69677734 C65.37639905 109.74372928 62.03984981 96.74158003 51.5625 85.5 C42.07721795 76.7364242 29.95620951 72.23675654 17.0625 71.8125 C2.75181938 72.44853025 -9.54187605 78.85866395 -19.1875 89.25 C-31.97354721 105.11643335 -30.96341845 123.94421554 -31.1875 143.25 C-32.30137085 143.32021362 -32.30137085 143.32021362 -33.43774414 143.3918457 C-34.41864014 143.46491943 -35.39953613 143.53799316 -36.41015625 143.61328125 C-37.37961182 143.68071533 -38.34906738 143.74814941 -39.34790039 143.81762695 C-45.26797533 144.71905011 -49.01928938 147.75229408 -52.625 152.375 C-54.52731596 155.87526136 -55.31030134 158.52040675 -55.39282227 162.44604492 C-55.41276749 163.28668991 -55.43271271 164.1273349 -55.45326233 164.99345398 C-55.46997482 165.89666885 -55.48668732 166.79988373 -55.50390625 167.73046875 C-55.52468735 168.65845779 -55.54546844 169.58644684 -55.56687927 170.54255676 C-55.63227323 173.5074624 -55.69121262 176.47245672 -55.75 179.4375 C-55.79319487 181.4472748 -55.83680947 183.45704063 -55.88085938 185.46679688 C-55.98794427 190.39444032 -56.08924045 195.32217299 -56.1875 200.25 C-63.49735434 200.35223167 -70.80702128 200.42181144 -78.11743164 200.46972656 C-80.59927256 200.4897219 -83.08106709 200.51692726 -85.56274414 200.55175781 C-89.15001947 200.60080964 -92.73666678 200.62309058 -96.32421875 200.640625 C-97.41643234 200.66127014 -98.50864594 200.68191528 -99.63395691 200.70318604 C-116.09578674 200.70787751 -131.20615634 193.83684437 -142.984375 182.4765625 C-143.71140625 181.74179687 -144.4384375 181.00703125 -145.1875 180.25 C-145.81140625 179.65960938 -146.4353125 179.06921875 -147.078125 178.4609375 C-159.27533313 165.98901748 -163.73338255 148.54844357 -163.67797852 131.66015625 C-163.1556107 112.91207358 -154.73537002 97.10727395 -141.1875 84.25 C-132.03698646 76.72181701 -122.14053937 72.26046004 -110.77734375 69.14453125 C-108.03946831 68.53678208 -108.03946831 68.53678208 -107.1875 66.25 C-107.13867551 64.81853838 -107.15066746 63.38472307 -107.1953125 61.953125 C-107.62801749 42.50123262 -104.97922126 24.85587086 -91.75 9.75 C-90.24975283 8.22941049 -88.72962976 6.72809669 -87.1875 5.25 C-86.52492188 4.55648437 -85.86234375 3.86296875 -85.1796875 3.1484375 C-62.17724235 -19.50416057 -24.90328595 -18.97393216 0 0 Z " fill="#B6E4FB" transform="translate(293.1875,183.75)"/>
<path d="M0 0 C1.6278669 -0.01073296 1.6278669 -0.01073296 3.28862 -0.02168274 C6.86854402 -0.03856336 10.44721484 -0.0191705 14.02709961 0.00219727 C16.51761478 0.00136858 19.0081299 -0.00109079 21.49864197 -0.00511169 C27.38234426 -0.00833493 33.26558972 0.01352026 39.14919895 0.04484087 C43.83884615 0.06770366 48.52809601 0.06786044 53.21777344 0.0546875 C59.689237 0.03657195 66.16034266 0.03799397 72.63180351 0.05690193 C75.09777737 0.06208644 77.56376987 0.06159871 80.02974129 0.05535698 C83.47466337 0.0499101 86.91848458 0.07026437 90.36328125 0.09765625 C91.89310135 0.08786743 91.89310135 0.08786743 93.4538269 0.07788086 C97.86331097 0.13753324 100.40512131 0.19426369 104.22654724 2.53944397 C107.78726146 6.47925415 107.27137151 10.15467401 107.27807617 15.22412109 C107.28552353 16.55850471 107.28552353 16.55850471 107.29312134 17.91984558 C107.30776272 20.8717831 107.31454853 23.82366686 107.32006836 26.77563477 C107.32581854 28.82346092 107.33157629 30.87128705 107.33734131 32.91911316 C107.34785717 37.21739961 107.35369589 41.51566733 107.35717773 45.81396484 C107.36266123 51.32213138 107.38668377 56.83005056 107.41514969 62.33813953 C107.43377307 66.57005028 107.43898153 70.80190145 107.44051361 75.03384972 C107.44354175 77.06443317 107.45157568 79.09501554 107.46469879 81.12555885 C107.48175158 83.96719798 107.47988077 86.80823283 107.47338867 89.64990234 C107.48260345 90.48905182 107.49181824 91.32820129 107.50131226 92.19277954 C107.46816481 96.82392111 107.12864336 99.87066478 104.11694336 103.63110352 C101.73024227 104.82445406 100.2469893 104.76716353 97.5821991 104.78500366 C96.15009346 104.79790436 96.15009346 104.79790436 94.6890564 104.81106567 C93.63811798 104.81532562 92.58717957 104.81958557 91.50439453 104.82397461 C90.4002269 104.8321521 89.29605927 104.84032959 88.15843201 104.84875488 C84.49226429 104.87363579 80.82613533 104.89013091 77.15991211 104.90454102 C75.91027491 104.90986469 74.6606377 104.91518837 73.37313271 104.92067337 C68.12225651 104.94190768 62.87138617 104.96103779 57.62047863 104.97229576 C50.09629454 104.98853398 42.57262694 105.02170847 35.04863757 105.07869661 C29.11984078 105.1220707 23.19115926 105.13804125 17.26220131 105.14442825 C14.7403629 105.15115759 12.2185325 105.16642289 9.69679832 105.19031906 C6.17002203 105.22183496 2.64455513 105.22202715 -0.88232422 105.21459961 C-2.4496228 105.23920761 -2.4496228 105.23920761 -4.04858398 105.26431274 C-8.55391112 105.22540326 -11.15172987 105.08825723 -15.0291748 102.66445923 C-17.56683288 98.5122962 -17.59384733 95.29830045 -17.54589844 90.51391602 C-17.55626633 89.60438171 -17.56663422 88.69484741 -17.57731628 87.75775146 C-17.60438033 84.75674077 -17.59472646 81.75719199 -17.58227539 78.75610352 C-17.58818408 76.66772046 -17.5954307 74.5793408 -17.60395813 72.4909668 C-17.61583757 68.11627542 -17.60913144 63.74209285 -17.58984375 59.36743164 C-17.56695151 53.76137754 -17.59374095 48.15683851 -17.63490582 42.55093384 C-17.66048015 38.23915302 -17.65790499 33.92773492 -17.64701271 29.61590576 C-17.64552572 27.54903792 -17.65321947 25.48214234 -17.67026329 23.41534424 C-17.69022736 20.52539133 -17.67185654 17.63812022 -17.64355469 14.74829102 C-17.65727112 13.8951532 -17.67098755 13.04201538 -17.68511963 12.1630249 C-17.60074962 7.85243927 -17.24389534 6.09300524 -14.51571655 2.60072327 C-10.09529239 -0.42965893 -5.17331161 -0.05942629 0 0 Z M36.11694336 35.63110352 C34.65454667 39.12813908 33.8857806 41.44639439 34.61694336 45.19360352 C36.09043575 47.89677577 36.09043575 47.89677577 39.21850586 50.10375977 C41.28127284 52.13388803 42.04752397 53.20031764 42.51245117 56.08544922 C42.48297091 58.92241658 42.28255764 61.68408592 41.99194336 64.50610352 C41.91717773 65.48063477 41.84241211 66.45516602 41.76538086 67.45922852 C41.57757779 69.85371766 41.36077789 72.24177977 41.11694336 74.63110352 C43.75694336 74.63110352 46.39694336 74.63110352 49.11694336 74.63110352 C49.04475586 73.97625977 48.97256836 73.32141602 48.89819336 72.64672852 C48.18343083 65.61823034 48.00602732 58.69275834 48.11694336 51.63110352 C48.74084961 51.33461914 49.36475586 51.03813477 50.00756836 50.73266602 C52.69556692 49.32893344 53.69700292 48.32899034 55.11694336 45.63110352 C55.64892347 40.84328251 55.8420335 38.76707807 53.24194336 34.69360352 C50.30452668 31.84258144 49.50547002 31.66294996 45.30444336 31.31860352 C41.06165062 31.3956052 38.97572783 32.35190956 36.11694336 35.63110352 Z " fill="#65C5FE" transform="translate(265.883056640625,337.368896484375)"/>
<path d="M0 0 C4.79041858 0.50762666 9.56000551 1.06722141 14.328125 1.75390625 C38.52709715 5.13432789 62.02868668 4.67423168 86.20458984 1.36376953 C90.4601043 0.80999516 94.72719231 0.39496542 99 0 C100.89463032 5.06875125 101.77158815 10.05203772 102.5625 15.375 C102.75102539 16.59316406 102.75102539 16.59316406 102.94335938 17.8359375 C103.19185061 19.45958703 103.43356525 21.0842883 103.66845703 22.70996094 C103.95916457 24.71794085 104.27265396 26.72259522 104.58984375 28.7265625 C105.17193248 34.79137266 105 40.90732 105 47 C68.7 47 32.4 47 -5 47 C-5 29.51734104 -5 29.51734104 -4.1875 22.9375 C-4.05819092 21.8249585 -4.05819092 21.8249585 -3.92626953 20.68994141 C-3.06151751 13.69249392 -1.65306076 6.85469194 0 0 Z " fill="#65C5FE" transform="translate(88,135)"/>
<path d="M0 0 C33.99 0 67.98 0 103 0 C101.65424821 4.03725537 100.41229388 7.33409926 98.5625 11.0625 C93.78048443 21.47041624 92.43645879 32.72802334 91 44 C86.36051605 44.07605711 81.86559318 44.02628204 77.25390625 43.51171875 C69.42980285 42.77708269 61.60132045 42.76062494 53.75 42.75 C52.95985504 42.74766357 52.16971008 42.74532715 51.35562134 42.74291992 C38.75238646 42.72890447 26.60365212 43.68482534 14.15380859 45.71875 C11.07267266 46.12109285 8.10281988 46.10049619 5 46 C4.34922827 42.83432793 3.7053016 39.66729923 3.0625 36.5 C2.88009766 35.613125 2.69769531 34.72625 2.50976562 33.8125 C2.33251953 32.9359375 2.15527344 32.059375 1.97265625 31.15625 C1.81031494 30.36025391 1.64797363 29.56425781 1.48071289 28.74414062 C-0.26735255 18.76534144 0 10.52282722 0 0 Z " fill="#65C5FE" transform="translate(83,194)"/>
<path d="M0 0 C15.96386048 11.93037366 24.90504547 29.42210975 31 48 C31 48.66 31 49.32 31 50 C0.7738231 55.22891305 -30.86706122 56.91575644 -61 50 C-59.70479552 43.04531505 -57.56613399 37.11375172 -54.5 30.75 C-54.05785156 29.8319458 -53.61570312 28.9138916 -53.16015625 27.96801758 C-46.89708113 15.35648193 -38.38177144 2.91364801 -25.0625 -3 C-16.43753147 -5.6551714 -7.73318867 -4.532406 0 0 Z " fill="#65C5FE" transform="translate(153,74)"/>
<path d="M0 0 C6.27113013 1.98089708 12.30827087 4.50768963 18.39257812 6.99023438 C23.86834318 9.20472885 29.37218124 11.20595682 35 13 C34.88930176 13.59087402 34.77860352 14.18174805 34.66455078 14.79052734 C31.70227463 30.8595654 30.06365949 46.69055449 29 63 C12.17 63 -4.66 63 -22 63 C-20.75151424 44.27271358 -16.65930542 28.53828905 -7.9375 12 C-7.60911133 11.37673828 -7.28072266 10.75347656 -6.94238281 10.11132812 C-4.94183218 6.42999519 -2.71280123 3.19010925 0 0 Z " fill="#65C5FE" transform="translate(42,119)"/>
<path d="M0 0 C16.83 0 33.66 0 51 0 C51.66 7.59 52.32 15.18 53 23 C53.85073398 28.98916719 54.69959173 34.95158603 55.66845703 40.91796875 C56.14973946 43.94033732 56.57678864 46.96900053 57 50 C56.42668945 50.18062988 55.85337891 50.36125977 55.26269531 50.54736328 C40.29671634 55.26872948 40.29671634 55.26872948 26.1796875 62.03125 C24 63 24 63 21 62 C19.43338781 59.79480684 18.04468544 57.64189449 16.6875 55.3125 C16.29014648 54.63477539 15.89279297 53.95705078 15.48339844 53.25878906 C10.01585906 43.74482782 6.09364297 34.05433291 3.1875 23.5 C2.9802832 22.76555664 2.77306641 22.03111328 2.55957031 21.27441406 C0.68547262 14.01505083 0.55830845 7.81631825 0 0 Z " fill="#65C5FE" transform="translate(20,194)"/>
<path d="M0 0 C6.18249187 5.60737635 9.89678644 10.73376145 10.4375 19.25 C10.32100267 25.48790239 7.39136102 31.60863898 3 36 C2.86520956 38.57770643 2.86520956 38.57770643 3.12890625 41.55859375 C3.19400391 42.66654297 3.25910156 43.77449219 3.32617188 44.91601562 C3.48348074 47.26004779 3.64492675 49.60380604 3.81054688 51.94726562 C3.87435547 53.05650391 3.93816406 54.16574219 4.00390625 55.30859375 C4.07424072 56.32751709 4.1445752 57.34644043 4.21704102 58.39624023 C4 61 4 61 2.89428711 62.83081055 C0.13187368 64.53582381 -2.08300025 64.38883678 -5.3125 64.3984375 C-6.55257813 64.40230469 -7.79265625 64.40617187 -9.0703125 64.41015625 C-11.01550781 64.39275391 -11.01550781 64.39275391 -13 64.375 C-14.29679687 64.38660156 -15.59359375 64.39820313 -16.9296875 64.41015625 C-18.16976563 64.40628906 -19.40984375 64.40242188 -20.6875 64.3984375 C-21.82574219 64.39505371 -22.96398437 64.39166992 -24.13671875 64.38818359 C-27 64 -27 64 -28.87402344 62.59716797 C-30.3499508 60.50360405 -30.33673825 59.30010459 -30.25 56.75 C-30.22099609 55.43515625 -30.22099609 55.43515625 -30.19140625 54.09375 C-30.04935373 51.79771738 -29.83791793 49.50575763 -29.58984375 47.21875 C-28.57434379 40.43895232 -28.57434379 40.43895232 -29.9765625 33.953125 C-31.24905804 32.56900705 -32.62336676 31.28058906 -34 30 C-36.42998443 23.86718215 -37.21295115 17.73476122 -35.16015625 11.4140625 C-31.7871634 3.85038156 -27.17538794 -0.22159402 -19.625 -3.4375 C-12.62748369 -4.5233215 -6.03455718 -3.9294791 0 0 Z M-22 13 C-23.46239669 16.49703556 -24.23116276 18.81529088 -23.5 22.5625 C-22.02650761 25.26567225 -22.02650761 25.26567225 -18.8984375 27.47265625 C-16.83567051 29.50278452 -16.06941939 30.56921413 -15.60449219 33.4543457 C-15.63397245 36.29131306 -15.83438572 39.0529824 -16.125 41.875 C-16.19976562 42.84953125 -16.27453125 43.8240625 -16.3515625 44.828125 C-16.53936557 47.22261415 -16.75616547 49.61067625 -17 52 C-14.36 52 -11.72 52 -9 52 C-9.0721875 51.34515625 -9.144375 50.6903125 -9.21875 50.015625 C-9.93351253 42.98712682 -10.11091604 36.06165482 -10 29 C-9.37609375 28.70351563 -8.7521875 28.40703125 -8.109375 28.1015625 C-5.42137644 26.69782992 -4.41994043 25.69788683 -3 23 C-2.46801989 18.212179 -2.27490986 16.13597455 -4.875 12.0625 C-7.81241668 9.21147793 -8.61147334 9.03184645 -12.8125 8.6875 C-17.05529274 8.76450168 -19.14121552 9.72080604 -22 13 Z " fill="#2D5EDE" transform="translate(324,360)"/>
<path d="M0 0 C8.24898781 4.15684288 13.77376367 22.63243816 16.9921875 31.00390625 C17.87539614 34.03036785 18.49135697 36.88762737 18.9921875 40.00390625 C18.1671875 40.01808594 17.3421875 40.03226563 16.4921875 40.046875 C2.57822471 40.62144712 -9.21630319 44.49303244 -21.23828125 51.453125 C-23.78190375 52.8774101 -26.27863812 53.99106822 -29.0078125 55.00390625 C-29.05268799 54.42125 -29.09756348 53.83859375 -29.14379883 53.23828125 C-30.02479225 42.07391128 -31.09647162 31.16271127 -33.51953125 20.21875 C-34.00185747 17.0431142 -33.71878069 15.08498651 -33.0078125 12.00390625 C-32.13213623 11.7251062 -32.13213623 11.7251062 -31.23876953 11.44067383 C-17.10975437 7.13025118 -17.10975437 7.13025118 -3.84765625 0.75390625 C-2.0078125 0.00390625 -2.0078125 0.00390625 0 0 Z " fill="#65C4FE" transform="translate(233.0078125,118.99609375)"/>
<path d="M0 0 C1.33952728 -0.0049926 1.33952728 -0.0049926 2.70611572 -0.01008606 C4.58190397 -0.01512321 6.45770109 -0.01749538 8.33349609 -0.01733398 C11.20815523 -0.0195351 14.08243912 -0.03776432 16.95703125 -0.05664062 C18.78385286 -0.05957226 20.61067628 -0.06155859 22.4375 -0.0625 C23.29688171 -0.06968552 24.15626343 -0.07687103 25.04168701 -0.08427429 C26.2387326 -0.07965935 26.2387326 -0.07965935 27.45996094 -0.07495117 C28.51083893 -0.0770887 28.51083893 -0.0770887 29.58294678 -0.07926941 C31.453125 0.16796875 31.453125 0.16796875 34.453125 2.16796875 C33.66808594 2.67585937 32.88304687 3.18375 32.07421875 3.70703125 C14.46530789 15.24464891 1.79136563 30.43198882 -3.546875 51.16796875 C-15.93890295 45.46924874 -22.73926861 30.50261106 -28.046875 18.66796875 C-28.38517334 17.91475342 -28.72347168 17.16153809 -29.07202148 16.38549805 C-30.82758599 12.3179482 -32.04067242 8.61130255 -32.546875 4.16796875 C-30.02639708 3.68686912 -27.5055213 3.20804272 -24.984375 2.73046875 C-24.27990234 2.59576172 -23.57542969 2.46105469 -22.84960938 2.32226562 C-22.15029297 2.19013672 -21.45097656 2.05800781 -20.73046875 1.921875 C-20.09681396 1.80142822 -19.46315918 1.68098145 -18.81030273 1.55688477 C-12.47387937 0.4681217 -6.41437782 0.00838506 0 0 Z " fill="#65C5FE" transform="translate(124.546875,247.83203125)"/>
<path d="M0 0 C5.45256971 2.37433671 8.71751643 6.33195297 11.71484375 11.3828125 C12.83396087 14.74016387 12.82849961 17.26486636 12.8125 20.80078125 C12.81000244 21.9302417 12.80750488 23.05970215 12.80493164 24.22338867 C12.79582764 25.65787354 12.78672363 27.0923584 12.77734375 28.5703125 C12.75671875 33.1284375 12.73609375 37.6865625 12.71484375 42.3828125 C-0.48515625 42.3828125 -13.68515625 42.3828125 -27.28515625 42.3828125 C-27.38828125 37.7628125 -27.49140625 33.1428125 -27.59765625 28.3828125 C-27.64317627 26.94164062 -27.68869629 25.50046875 -27.7355957 24.015625 C-27.8165162 16.51455636 -27.49053012 11.06296223 -22.28515625 5.3828125 C-15.67752183 -0.74133647 -8.80720628 -2.37869845 0 0 Z " fill="#B5E3FB" transform="translate(318.28515625,284.6171875)"/>
<path d="M0 0 C8.62190255 6.77103305 17.41075746 14.90366641 22 25 C21.9375 28.3125 21.9375 28.3125 21 31 C17.43961959 33.37358694 16.19103161 33.73959381 12 33 C8.93186161 30.40263416 6.73545443 27.03326807 4.41796875 23.77734375 C-3.78255228 12.58084782 -16.31865469 5.41570325 -30 3 C-33.17319152 2.73866641 -36.31759102 2.7193508 -39.5 2.75 C-40.70462891 2.73839844 -40.70462891 2.73839844 -41.93359375 2.7265625 C-47.29162228 2.7439305 -51.83525218 3.60412221 -57 5 C-60.5664141 4.86541834 -62.24452757 4.65799211 -64.9375 2.3125 C-66.42635424 -0.92794747 -66.14074607 -2.64905842 -65 -6 C-49.23581488 -19.79366198 -14.79903117 -9.99486807 0 0 Z " fill="#2C5DDE" transform="translate(418,145)"/>
<path d="M0 0 C19.37458662 4.47105845 35.95832143 16.39781059 50 30 C50.60714844 30.56074219 51.21429688 31.12148437 51.83984375 31.69921875 C53 33 53 33 53 35 C30.19925396 45.21137706 30.19925396 45.21137706 23 45 C22.8047876 44.47792969 22.6095752 43.95585938 22.40844727 43.41796875 C16.64173427 28.14261649 10.23438774 13.85858973 0 1 C0 0.67 0 0.34 0 0 Z " fill="#65C4FE" transform="translate(172,75)"/>
<path d="M0 0 C1.16732156 2.66125123 2.16855233 5.26347348 3.125 8 C5.56808555 14.61206927 8.2770995 20.948445 11.5625 27.1875 C11.91393066 27.86876953 12.26536133 28.55003906 12.62744141 29.25195312 C14.91548266 33.50672282 17.55334159 37.00866879 20.84350586 40.5480957 C22 42 22 42 22 44 C16.05438475 43.45057021 11.18625769 41.04794583 5.875 38.5 C4.93938232 38.05148682 4.00376465 37.60297363 3.03979492 37.14086914 C-4.375746 33.48997323 -10.72614673 29.41962211 -17 24 C-17.92425781 23.21238281 -18.84851563 22.42476563 -19.80078125 21.61328125 C-23.95472432 17.97632676 -27.62678249 14.38518276 -31 10 C-6.37520938 -2.12506979 -6.37520938 -2.12506979 0 0 Z " fill="#65C4FE" transform="translate(81,256)"/>
<path d="M0 0 C-0.40089844 0.4640625 -0.80179688 0.928125 -1.21484375 1.40625 C-11.68864464 14.13631186 -17.76522854 28.51450244 -23 44 C-30.05468559 43.54531734 -35.51322047 41.88210815 -41.9375 39 C-42.78634766 38.63132813 -43.63519531 38.26265625 -44.50976562 37.8828125 C-47.3662841 36.63748861 -50.21254952 35.39372524 -53 34 C-49.25440807 22.3079589 -33.21843264 13.35082926 -22.76611328 7.81738281 C-3.62070109 -1.81035055 -3.62070109 -1.81035055 0 0 Z " fill="#65C4FE" transform="translate(104,76)"/>
<path d="M0 0 C6.11714556 4.47022176 11.8234191 9.56816899 13.0859375 17.26953125 C12.4609375 20.45703125 12.4609375 20.45703125 10.8359375 22.45703125 C7.58728649 23.82488431 5.83868655 23.39247303 2.4609375 22.45703125 C0.2578125 20.3125 0.2578125 20.3125 -1.7890625 17.64453125 C-6.22963128 12.51402286 -9.76497254 9.60315253 -16.5390625 8.45703125 C-20.49097718 8.30820688 -24.43537644 8.3635123 -28.38256836 8.60302734 C-34.08191976 8.86328286 -34.08191976 8.86328286 -36.57421875 6.6484375 C-37.97010513 3.47802348 -37.64597313 1.70858123 -36.5390625 -1.54296875 C-26.39439991 -9.49419078 -10.19420031 -6.19493711 0 0 Z " fill="#2C5DDD" transform="translate(399.5390625,170.54296875)"/>
</svg>
