<?xml version="1.0" encoding="UTF-8"?>
<svg version="1.1" xmlns="http://www.w3.org/2000/svg" width="512" height="512">
<path d="M0 0 C4.63235294 2.26470588 4.63235294 2.26470588 6 5 C6.10716517 8.11317181 6.15222383 11.2044159 6.15390015 14.31819153 C6.1582824 15.29642512 6.16266465 16.2746587 6.1671797 17.28253573 C6.18060234 20.58134406 6.1867543 23.88012567 6.19287109 27.17895508 C6.20076925 29.53564069 6.20903801 31.89232508 6.21765137 34.24900818 C6.24163526 41.3361273 6.25680305 48.42324729 6.26971143 55.51039436 C6.27465904 58.17819817 6.28010752 60.84600093 6.28552675 63.51380381 C6.3092334 75.26971064 6.32942264 87.02561947 6.34119225 98.78154469 C6.34412202 101.65945757 6.34708367 104.53737041 6.35009766 107.4152832 C6.35084371 108.13058819 6.35158976 108.84589318 6.35235842 109.58287408 C6.36501575 121.17392602 6.39824348 132.76482469 6.43989949 144.35580496 C6.48230088 156.251534 6.50588514 168.14718453 6.51111281 180.04298896 C6.51452886 186.72390484 6.52687208 193.40461291 6.55921555 200.08545876 C6.58919765 206.36866053 6.59564304 212.65144395 6.58383179 218.93470192 C6.58361024 221.24341386 6.59198217 223.55214466 6.60948563 225.86079025 C6.63205184 229.00798842 6.62393984 232.15365341 6.60800171 235.30085754 C6.6218838 236.21875669 6.63576588 237.13665583 6.65006864 238.0823701 C6.5945654 242.51728178 6.43347772 244.42253664 3.69651699 248.06861687 C0.10305329 250.64243903 -2.92788694 250.66861063 -7.18676758 250.56762695 C-8.40218231 250.56872215 -8.40218231 250.56872215 -9.64215088 250.56983948 C-12.31030101 250.5663665 -14.97668757 250.52752103 -17.64453125 250.48828125 C-19.49825588 250.47895205 -21.35199287 250.47183644 -23.20573425 250.46684265 C-28.07716093 250.44778124 -32.94783841 250.39868785 -37.81896973 250.34332275 C-42.79262152 250.29211177 -47.76639475 250.26932466 -52.74023438 250.24414062 C-62.49381818 250.19056827 -72.24684671 250.10526583 -82 250 C-81.97381592 251.27641357 -81.94763184 252.55282715 -81.9206543 253.86791992 C-81.83004584 258.6107424 -81.77271173 263.35348862 -81.7253418 268.09692383 C-81.70022194 270.14848706 -81.66611964 272.19996101 -81.62280273 274.2512207 C-81.56203998 277.20286091 -81.53376508 280.1533165 -81.51171875 283.10546875 C-81.48591232 284.02023483 -81.4601059 284.93500092 -81.43351746 285.87748718 C-81.4331398 286.73800186 -81.43276215 287.59851654 -81.43237305 288.48510742 C-81.42126999 289.23789474 -81.41016693 289.99068207 -81.39872742 290.76628113 C-82.38533399 294.43151013 -83.96687392 295.71348487 -87 298 C-90.82685368 298.74720205 -94.60862995 298.65265418 -98.49690247 298.60127258 C-99.67315412 298.60554471 -100.84940577 298.60981683 -102.06130141 298.61421841 C-105.32262683 298.6210297 -108.58295829 298.60540829 -111.84416616 298.58032811 C-115.36217476 298.55873351 -118.88013712 298.56604281 -122.39819336 298.56983948 C-128.49220063 298.57246112 -134.58594021 298.55677523 -140.67988014 298.52865028 C-149.49064423 298.48801303 -158.3012789 298.47499286 -167.11212655 298.46871033 C-181.4070998 298.45776748 -195.70193038 298.42449358 -209.99682617 298.37719727 C-223.88288662 298.3313014 -237.76890831 298.29590964 -251.6550293 298.2746582 C-252.51098341 298.27334459 -253.36693752 298.27203097 -254.24882964 298.27067754 C-258.54290467 298.26415235 -262.83697998 298.25783381 -267.13105547 298.25161803 C-302.75413869 298.19978532 -338.37705618 298.11172033 -374 298 C-373.97381592 299.27641357 -373.94763184 300.55282715 -373.9206543 301.86791992 C-373.83004584 306.6107424 -373.77271173 311.35348862 -373.7253418 316.09692383 C-373.70022194 318.14848706 -373.66611964 320.19996101 -373.62280273 322.2512207 C-373.56203998 325.20286091 -373.53376508 328.1533165 -373.51171875 331.10546875 C-373.48591232 332.02023483 -373.4601059 332.93500092 -373.43351746 333.87748718 C-373.43154087 338.38127585 -373.52292727 340.36560499 -376.30395508 344.0637207 C-379.15417689 346.11072869 -381.1703697 346.97812678 -384.71875 346.7265625 C-389.41769947 345.22997928 -392.84419603 341.67522987 -396.43457031 338.41210938 C-398.6549073 336.40923521 -400.93013968 334.47317413 -403.20458984 332.53222656 C-405.00543618 330.99536069 -406.79954756 329.45086265 -408.59375 327.90625 C-411.526676 325.39231343 -414.50074825 322.93468672 -417.5 320.5 C-422.34596789 316.5662143 -427.08098528 312.51552241 -431.80859375 308.44140625 C-435.33317903 305.41041716 -438.89048832 302.43007419 -442.5 299.5 C-447.90076172 295.11287098 -453.174677 290.58776588 -458.44921875 286.05078125 C-465.71031003 279.80572679 -473.00553429 273.6036885 -480.4375 267.5625 C-485.41416928 263.51393204 -490.28839663 259.35454021 -495.14233398 255.16040039 C-497.67739487 252.97323888 -500.2130722 250.83333667 -502.8515625 248.76953125 C-505.96459228 246.20552673 -505.96885797 245.31661063 -506.375 241.1875 C-506.5234375 239.16796875 -506.5234375 239.16796875 -506 237 C-503.796875 234.53515625 -503.796875 234.53515625 -501 232 C-500.17242187 231.22140625 -499.34484375 230.4428125 -498.4921875 229.640625 C-493.1047068 224.71952323 -487.6165234 219.99155091 -481.94140625 215.40625 C-478.62612023 212.69414351 -475.37130323 209.9189422 -472.125 207.125 C-465.97989834 201.83729591 -459.80314126 196.58887908 -453.60888672 191.35888672 C-451.44696837 189.53290227 -449.2867642 187.70489675 -447.12670898 185.87670898 C-446.04433746 184.96068121 -444.96181847 184.04482764 -443.87915039 183.12915039 C-441.14363268 180.81543212 -438.40998789 178.49956105 -435.6796875 176.1796875 C-430.69685653 171.94920376 -425.70297285 167.7414632 -420.625 163.625 C-416.8656799 160.57055242 -413.19013788 157.43887506 -409.54858398 154.24633789 C-406.38399091 151.47616421 -403.19582006 148.73404444 -400 146 C-399.40300293 145.48598633 -398.80600586 144.97197266 -398.19091797 144.44238281 C-396.49906633 143.0010888 -394.78606786 141.59061191 -393.0625 140.1875 C-392.08410156 139.37667969 -391.10570312 138.56585938 -390.09765625 137.73046875 C-385.85386956 135.35972789 -383.82190439 135.2961073 -379 136 C-376.14436772 138.01655601 -374.28834645 139.58762947 -373.56843567 143.11387634 C-373.42063649 145.72200056 -373.4380518 148.28324268 -373.51171875 150.89453125 C-373.52233086 152.31556404 -373.52233086 152.31556404 -373.53315735 153.76530457 C-373.56107666 156.78185021 -373.62381085 159.7965184 -373.6875 162.8125 C-373.71258604 164.86130126 -373.73539867 166.9101317 -373.75585938 168.95898438 C-373.81089541 173.97337621 -373.89715144 178.98637014 -374 184 C-370.04 184 -366.08 184 -362 184 C-362.00999275 182.74212173 -362.00999275 182.74212173 -362.02018738 181.45883179 C-362.08037928 173.54344627 -362.12601542 165.62813798 -362.15543652 157.71257591 C-362.17107087 153.64340805 -362.19226809 149.57442983 -362.22631836 145.50537109 C-362.25899183 141.57610849 -362.27686979 137.64702793 -362.28463173 133.71763992 C-362.29016095 132.22096518 -362.30095824 130.72430003 -362.31719017 129.22770309 C-362.33907143 127.12603223 -362.34196258 125.02510688 -362.34057617 122.92333984 C-362.35056892 121.1313063 -362.35056892 121.1313063 -362.36076355 119.30307007 C-361.95237198 115.5639285 -360.97298017 113.18796824 -359 110 C-355.73942659 107.8262844 -354.81341653 107.74797564 -351.04125977 107.74121094 C-349.52937828 107.73175446 -349.52937828 107.73175446 -347.98695374 107.72210693 C-346.89942307 107.7261554 -345.8118924 107.73020386 -344.69140625 107.734375 C-343.01400612 107.73150482 -343.01400612 107.73150482 -341.30271912 107.72857666 C-338.9364296 107.72721492 -336.57013261 107.7309106 -334.20385742 107.73925781 C-330.58039557 107.74994721 -326.95743066 107.73936707 -323.33398438 107.7265625 C-321.03645724 107.72788429 -318.73893041 107.7304471 -316.44140625 107.734375 C-314.81314659 107.72830231 -314.81314659 107.72830231 -313.1519928 107.72210693 C-312.14091965 107.72841125 -311.1298465 107.73471558 -310.08813477 107.74121094 C-308.75601707 107.74359772 -308.75601707 107.74359772 -307.39698792 107.74603271 C-304.77536946 108.02380021 -303.20651274 108.56969724 -301 110 C-298.54482488 113.68276269 -298.75740295 115.46633387 -298.77294922 119.8581543 C-298.77265717 120.55109589 -298.77236511 121.24403748 -298.77206421 121.95797729 C-298.77345681 124.24685212 -298.78901443 126.53540084 -298.8046875 128.82421875 C-298.80841789 130.41176679 -298.81126474 131.99931712 -298.81326294 133.58686829 C-298.8208974 137.76427574 -298.84054425 141.94154401 -298.8626709 146.11889648 C-298.88313337 150.38197955 -298.89226551 154.6450851 -298.90234375 158.90820312 C-298.92379037 167.27220639 -298.95897095 175.63606984 -299 184 C-292.4 184 -285.8 184 -279 184 C-279.01110306 182.03388763 -279.02220612 180.06777527 -279.03364563 178.04208374 C-279.13579213 159.53109876 -279.2102163 141.02015091 -279.25906086 122.50894737 C-279.2848411 112.99169157 -279.31998817 103.47464259 -279.37719727 93.95751953 C-279.42703776 85.66225758 -279.45929233 77.36714541 -279.47044247 69.07173789 C-279.47696017 64.67941535 -279.49227458 60.28752133 -279.52865028 55.89533615 C-279.56262016 51.76008942 -279.5730511 47.62544717 -279.56553841 43.49007416 C-279.56691253 41.97353199 -279.57683967 40.45696935 -279.59602737 38.94054794 C-279.75097607 26.06171578 -279.75097607 26.06171578 -276.79911804 22.09945679 C-273.74814583 19.81109873 -272.41265276 19.24327331 -268.64648438 19.22363281 C-267.60190063 19.20471985 -266.55731689 19.18580688 -265.4810791 19.1663208 C-264.3632605 19.17846619 -263.24544189 19.19061157 -262.09375 19.203125 C-260.93629272 19.19738464 -259.77883545 19.19164429 -258.58630371 19.18572998 C-256.14198853 19.18165159 -253.69760786 19.19269163 -251.25341797 19.21777344 C-247.51251241 19.24989257 -243.77592746 19.21807457 -240.03515625 19.1796875 C-237.65884463 19.18365242 -235.2825357 19.19133992 -232.90625 19.203125 C-231.7884314 19.19097961 -230.67061279 19.17883423 -229.5189209 19.1663208 C-227.95204529 19.19469025 -227.95204529 19.19469025 -226.35351562 19.22363281 C-224.98048279 19.23079315 -224.98048279 19.23079315 -223.57971191 19.23809814 C-220.61177787 20.11465899 -218.82418749 21.26279801 -216.96307564 23.76095581 C-214.65387362 29.12959474 -215.35957875 35.43206046 -215.43237305 41.18505859 C-215.43378429 42.74257359 -215.43299004 44.30009191 -215.43016052 45.85760498 C-215.42872792 50.07641625 -215.45809185 54.29451445 -215.49303031 58.51316023 C-215.52432014 62.9253727 -215.52722661 67.33760214 -215.53315735 71.74990845 C-215.5486881 80.10095111 -215.58970608 88.45166588 -215.6399048 96.80256426 C-215.69582224 106.31154503 -215.72329079 115.82054158 -215.74838197 125.32964587 C-215.80062269 144.88661843 -215.88955899 164.44327699 -216 184 C-209.4 184 -202.8 184 -196 184 C-196.01571045 180.87571533 -196.0314209 177.75143066 -196.04760742 174.5324707 C-196.09729621 164.2147823 -196.13044619 153.89708864 -196.15543652 143.57931232 C-196.17109851 137.32307422 -196.19234683 131.06695862 -196.22631836 124.81079102 C-196.25889231 118.77428672 -196.27684899 112.73790032 -196.28463173 106.70131493 C-196.29017873 104.39719982 -196.30101052 102.09309123 -196.31719017 99.78902626 C-196.33893792 96.56404249 -196.34196798 93.33954714 -196.34057617 90.11450195 C-196.35675491 88.68275131 -196.35675491 88.68275131 -196.3732605 87.22207642 C-196.35052458 82.35983811 -196.27166527 78.89187924 -193 75 C-187.87647066 72.40170524 -182.4335308 72.69372216 -176.81640625 72.69921875 C-175.84267563 72.69493362 -174.86894501 72.6906485 -173.8657074 72.68623352 C-171.81241633 72.68050683 -169.75910499 72.67997768 -167.70581055 72.68432617 C-164.5763059 72.68748606 -161.44774733 72.66400607 -158.31835938 72.63867188 C-156.31770952 72.6363986 -154.31705714 72.63569552 -152.31640625 72.63671875 C-151.38703751 72.627509 -150.45766876 72.61829926 -149.50013733 72.60881042 C-143.92591377 72.6482192 -139.86629341 73.17956698 -135 76 C-133.1704083 78.86041913 -132.7513681 81.0663943 -132.75949097 84.42926025 C-132.75536697 85.75011627 -132.75536697 85.75011627 -132.75115967 87.09765625 C-132.75835022 88.05575195 -132.76554077 89.01384766 -132.77294922 90.00097656 C-132.77265717 91.01593201 -132.77236511 92.03088745 -132.77206421 93.07659912 C-132.77345754 96.43136138 -132.78901911 99.78590154 -132.8046875 103.140625 C-132.80841761 105.46661254 -132.81126459 107.79260164 -132.81326294 110.11859131 C-132.82089951 116.24080747 -132.8405483 122.36292875 -132.8626709 128.48510742 C-132.88312875 134.73224606 -132.89226453 140.97940002 -132.90234375 147.2265625 C-132.92379409 159.48441669 -132.95793041 171.74220045 -133 184 C-132.15221733 183.98334541 -132.15221733 183.98334541 -131.28730774 183.96635437 C-125.39881206 183.85563987 -119.51061253 183.78028316 -113.62133789 183.7253418 C-111.4242756 183.70021491 -109.22729676 183.66610754 -107.03051758 183.62280273 C-103.87039595 183.56207238 -100.71138043 183.53377167 -97.55078125 183.51171875 C-96.08020012 183.47300911 -96.08020012 183.47300911 -94.57991028 183.43351746 C-89.95954081 183.43162201 -87.71272233 183.48704643 -83.87605286 186.24833679 C-81.97082886 189.04278619 -81.3835245 190.20296137 -81.43237305 193.51489258 C-81.43297729 194.38730591 -81.43358154 195.25971924 -81.4342041 196.15856934 C-81.45978394 197.06143677 -81.48536377 197.9643042 -81.51171875 198.89453125 C-81.51675415 199.73479858 -81.52178955 200.57506592 -81.52697754 201.4407959 C-81.55304232 204.56504676 -81.62284982 207.68880937 -81.6875 210.8125 C-81.790625 217.804375 -81.89375 224.79625 -82 232 C-58.9 232 -35.8 232 -12 232 C-12.02094727 225.14444336 -12.04189453 218.28888672 -12.06347656 211.22558594 C-12.12765215 189.30004408 -12.17215938 167.37449752 -12.20426132 145.44888596 C-12.20926425 142.0442115 -12.21444153 138.63953732 -12.21972656 135.23486328 C-12.2207758 134.55704297 -12.22182505 133.87922266 -12.22290608 133.18086234 C-12.24031982 122.200125 -12.27186279 111.21947127 -12.30861118 100.23878357 C-12.34599374 88.97480841 -12.36793067 77.71087509 -12.37635398 66.4468348 C-12.38157781 60.11860462 -12.39389185 53.7905642 -12.42292023 47.46239471 C-12.45000428 41.51004502 -12.45845913 35.55796385 -12.45243073 29.6055584 C-12.4535341 27.41737091 -12.46152941 25.22917475 -12.4768219 23.04104042 C-12.49663981 20.05996566 -12.49196891 17.07991292 -12.48101807 14.09881592 C-12.49266943 13.22722202 -12.5043208 12.35562812 -12.51632524 11.45762229 C-12.45794019 5.6024359 -12.45794019 5.6024359 -10.09493637 2.49382401 C-6.54033374 -0.04083567 -4.37817501 -0.34338628 0 0 Z " fill="#558EFA" transform="translate(506,166)"/>
<path d="M0 0 C4.53798263 1.25413338 7.69791852 4.52547414 11.1484375 7.59375 C12.24538122 8.53620411 13.3444802 9.47615338 14.4453125 10.4140625 C16.86242554 12.47513816 19.27142934 14.54515057 21.67578125 16.62109375 C24.60607465 19.14180205 27.58106034 21.59958339 30.5859375 24.03125 C35.69071593 28.17371379 40.64466432 32.47494099 45.59912109 36.79443359 C50.11078483 40.71876658 54.70178256 44.52809037 59.34765625 48.29296875 C63.8284137 51.97381413 68.21002936 55.76888193 72.60546875 59.55078125 C75.95986378 62.43605575 79.33135739 65.30054062 82.7109375 68.15625 C83.50927002 68.83083252 83.50927002 68.83083252 84.32373047 69.51904297 C85.3955709 70.42443442 86.46751076 71.32970817 87.53955078 72.23486328 C89.70195468 74.06125784 91.86264052 75.8896781 94.02319336 77.71826172 C95.10070711 78.63019089 96.17834248 79.54197638 97.25610352 80.45361328 C100.06575316 82.83025585 102.87383288 85.20872152 105.6796875 87.58984375 C106.26041016 88.08226563 106.84113281 88.5746875 107.43945312 89.08203125 C108.54279572 90.01766577 109.64569285 90.95382597 110.74804688 91.890625 C113.12076181 93.90181231 115.50703042 95.87315365 117.9609375 97.78515625 C121.09972799 100.38026339 121.1136469 101.24004557 121.5234375 105.40625 C121.671875 107.42578125 121.671875 107.42578125 121.1484375 109.59375 C118.9453125 112.05859375 118.9453125 112.05859375 116.1484375 114.59375 C114.90707031 115.76164062 114.90707031 115.76164062 113.640625 116.953125 C108.2531443 121.87422677 102.7649609 126.60219909 97.08984375 131.1875 C93.77455773 133.89960649 90.51974073 136.6748078 87.2734375 139.46875 C81.12833584 144.75645409 74.95157876 150.00487092 68.75732422 155.23486328 C66.05271461 157.51921186 63.35071623 159.80664508 60.6484375 162.09375 C59.56511651 163.01043126 58.48178318 163.92709793 57.3984375 164.84375 C56.8621875 165.2975 56.3259375 165.75125 55.7734375 166.21875 C54.1484375 167.59375 52.5234375 168.96875 50.8984375 170.34375 C50.36202637 170.79766113 49.82561523 171.25157227 49.27294922 171.71923828 C48.19134229 172.63439413 47.10963681 173.5494335 46.02783203 174.46435547 C43.29225811 176.77818478 40.55851276 179.09411471 37.828125 181.4140625 C31.93184674 186.4203365 25.99824801 191.37048726 19.99609375 196.25 C16.08498203 199.46902199 12.22985342 202.75293943 8.38671875 206.05273438 C4.12083494 209.69344556 1.9591613 210.70243955 -3.68359375 211.1171875 C-7.2727031 210.25062776 -8.60749352 208.48496181 -10.8515625 205.59375 C-11.53729099 202.28745764 -11.434757 199.06362973 -11.33984375 195.69921875 C-11.33276901 194.75186356 -11.32569427 193.80450836 -11.31840515 192.82844543 C-11.29048584 189.81189979 -11.22775165 186.7972316 -11.1640625 183.78125 C-11.13897646 181.73244874 -11.11616383 179.6836183 -11.09570312 177.63476562 C-11.04066709 172.62037379 -10.95441106 167.60737986 -10.8515625 162.59375 C-11.75963954 162.59602832 -11.75963954 162.59602832 -12.68606156 162.59835267 C-48.55153379 162.68782949 -84.41698684 162.75647826 -120.28254743 162.79801132 C-124.58720954 162.80301425 -128.89187143 162.80819153 -133.1965332 162.81347656 C-134.05352809 162.8145258 -134.91052298 162.81557505 -135.79348741 162.81665608 C-149.67701027 162.83406999 -163.56046701 162.8656131 -177.44395062 162.90236118 C-191.68551692 162.9397432 -205.92704854 162.96198005 -220.16866189 162.97010398 C-228.9593133 162.97559745 -237.74977781 162.99295936 -246.54037169 163.02541587 C-252.56519721 163.04652997 -258.58992585 163.05295711 -264.61478569 163.04775551 C-268.09291605 163.04518885 -271.5707194 163.04917352 -275.04879189 163.0705719 C-278.81767825 163.09038759 -282.5857561 163.08571894 -286.35466003 163.07476807 C-288.00786696 163.09224512 -288.00786696 163.09224512 -289.69447201 163.11007524 C-297.09009783 163.05174029 -297.09009783 163.05174029 -301.01978111 160.68819427 C-303.88409418 157.41316148 -303.97843223 154.68458419 -303.96508789 150.46777344 C-303.96496704 149.65614746 -303.96484619 148.84452148 -303.96472168 148.00830078 C-303.95960571 147.16509277 -303.95448975 146.32188477 -303.94921875 145.453125 C-303.94821167 144.6708252 -303.94720459 143.88852539 -303.94616699 143.08251953 C-303.94094819 140.16958137 -303.92698693 137.25666416 -303.9140625 134.34375 C-303.8934375 127.82625 -303.8728125 121.30875 -303.8515625 114.59375 C-326.6215625 114.59375 -349.3915625 114.59375 -372.8515625 114.59375 C-372.83061523 121.41377686 -372.80966797 128.23380371 -372.78808594 135.26049805 C-372.72389744 157.07751257 -372.67939757 178.89453183 -372.64730118 200.71161644 C-372.64229831 204.09998086 -372.63712102 207.48834499 -372.63183594 210.87670898 C-372.6307867 211.55127637 -372.62973745 212.22584376 -372.62865642 212.92085258 C-372.6112472 223.84594914 -372.57970671 234.77096158 -372.54295132 245.69600823 C-372.5055562 256.90461756 -372.48362913 268.11318483 -372.47520852 279.32185966 C-372.46998687 285.61826413 -372.45768651 291.91447775 -372.42864227 298.21082115 C-372.40153814 304.13444715 -372.39310747 310.05780326 -372.39913177 315.98148537 C-372.39802931 318.15796499 -372.3900459 320.33445343 -372.3747406 322.51087952 C-372.35489134 325.47846792 -372.35960516 328.44503222 -372.37054443 331.41264343 C-372.35889307 332.27743354 -372.3472417 333.14222365 -372.33523726 334.03321952 C-372.37576668 338.09014656 -372.53670091 340.09605075 -374.75662613 343.60506916 C-377.89543657 346.5846786 -377.89543657 346.5846786 -380.91015625 346.61328125 C-381.69519531 346.54496094 -382.48023438 346.47664063 -383.2890625 346.40625 C-384.46275391 346.32310547 -384.46275391 346.32310547 -385.66015625 346.23828125 C-387.8515625 345.59375 -387.8515625 345.59375 -389.46387482 344.15088558 C-391.60005996 340.21447028 -391.27155264 336.44631702 -391.24597168 332.03504944 C-391.25206278 331.055107 -391.25815389 330.07516456 -391.26442957 329.0655269 C-391.2811154 325.77281578 -391.27627573 322.480489 -391.27148438 319.18774414 C-391.27882142 316.83076066 -391.28740658 314.47378079 -391.29714966 312.11680603 C-391.31941195 305.70778898 -391.32229399 299.29890031 -391.32040215 292.8898499 C-391.31961378 288.88831085 -391.32451679 284.8867854 -391.33088684 280.885252 C-391.33298602 279.54111415 -391.33508362 278.19697631 -391.33717966 276.85283846 C-391.33822319 276.18383945 -391.33926672 275.51484044 -391.34034187 274.82556873 C-391.35924646 262.17150402 -391.35819331 249.51749728 -391.35137254 236.86342429 C-391.34579627 225.28541656 -391.36662553 213.70763005 -391.39973301 202.12967402 C-391.4334599 190.24290372 -391.44863965 178.35623943 -391.44401598 166.46942037 C-391.44177034 159.79526295 -391.44748588 153.12128047 -391.47190857 146.44716072 C-391.49411149 140.17210765 -391.49235127 133.89751618 -391.47198105 127.62246132 C-391.46855966 125.31698501 -391.47370832 123.01147801 -391.48796463 120.70604324 C-391.50606053 117.5632965 -391.49347899 114.42213183 -391.47302246 111.2794342 C-391.48554031 110.3628993 -391.49805816 109.44636439 -391.51095533 108.5020557 C-391.44892591 104.06999047 -391.28324119 102.16785812 -388.54486561 98.52597427 C-384.97588449 95.96552279 -381.98891752 95.92451581 -377.7565918 96.02612305 C-376.95606888 96.02539291 -376.15554596 96.02466278 -375.33076477 96.02391052 C-372.69507153 96.02738315 -370.06116421 96.06622666 -367.42578125 96.10546875 C-365.59447698 96.11479808 -363.76316021 96.12191363 -361.93183899 96.12690735 C-357.11959173 96.14596774 -352.30810302 96.19506016 -347.49615479 96.25042725 C-342.58282736 96.30164049 -337.66937697 96.32442582 -332.75585938 96.34960938 C-323.12076108 96.40317991 -313.48622495 96.48848106 -303.8515625 96.59375 C-303.86727295 95.37792236 -303.8829834 94.16209473 -303.89916992 92.90942383 C-303.95355051 88.39012297 -303.98794222 83.87085094 -304.01635742 79.35131836 C-304.03142551 77.39684177 -304.05188374 75.44239888 -304.07788086 73.48803711 C-304.11435115 70.67553377 -304.13130872 67.86347826 -304.14453125 65.05078125 C-304.16001511 64.17976273 -304.17549896 63.3087442 -304.19145203 62.41133118 C-304.19276698 57.65000298 -303.99921284 54.42921511 -300.8515625 50.59375 C-297.60689685 48.43063957 -296.74278228 48.34439002 -293.00023365 48.34765434 C-291.49167214 48.3416812 -291.49167214 48.3416812 -289.95263463 48.33558738 C-288.844671 48.34141307 -287.73670736 48.34723875 -286.59516907 48.35324097 C-285.42062627 48.35153212 -284.24608346 48.34982327 -283.03594846 48.34806263 C-279.77041603 48.34533232 -276.50504134 48.35160424 -273.23952758 48.36161876 C-269.72012002 48.37023887 -266.20072008 48.36733412 -262.68130493 48.36581421 C-256.58189962 48.36476444 -250.48253703 48.37105059 -244.38314247 48.38228989 C-235.56439922 48.39852955 -226.74567667 48.40375132 -217.92692008 48.40626587 C-203.61980675 48.41064539 -189.31271619 48.42396144 -175.00561523 48.44287109 C-161.10587681 48.46122326 -147.20614457 48.47538301 -133.30639648 48.48388672 C-132.44991692 48.48441217 -131.59343736 48.48493761 -130.71100388 48.48547898 C-126.41438737 48.48808902 -122.11777082 48.49061644 -117.82115424 48.49310279 C-82.16460742 48.51384328 -46.50808706 48.54907578 -10.8515625 48.59375 C-10.87774658 47.31733643 -10.90393066 46.04092285 -10.9309082 44.72583008 C-11.02151666 39.9830076 -11.07885077 35.24026138 -11.1262207 30.49682617 C-11.15134056 28.44526294 -11.18544286 26.39378899 -11.22875977 24.3425293 C-11.28952252 21.39088909 -11.31779742 18.4404335 -11.33984375 15.48828125 C-11.36565018 14.57351517 -11.3914566 13.65874908 -11.41804504 12.71626282 C-11.42002027 8.21556688 -11.32345433 6.22499626 -8.55541992 2.5222168 C-5.64237055 0.44454844 -3.60213153 -0.26781647 0 0 Z " fill="#E7ECF9" transform="translate(390.8515625,-0.59375)"/>
<path d="M0 0 C0.01458252 0.88260498 0.02916504 1.76520996 0.04418945 2.67456055 C0.10542067 5.96438643 0.1796033 9.2533993 0.26245117 12.54272461 C0.29560557 13.96351202 0.32366692 15.38442813 0.34643555 16.80541992 C0.38015847 18.8539082 0.43247745 20.9012272 0.48828125 22.94921875 C0.51446533 24.17987061 0.54064941 25.41052246 0.56762695 26.6784668 C1.02959973 30.22738812 1.86544547 32.1568715 4 35 C6.43764906 36.21882453 8.00275581 36.13034843 10.72828102 36.1386652 C11.73199765 36.14413964 12.73571428 36.14961409 13.76984656 36.15525442 C15.43616128 36.15672158 15.43616128 36.15672158 17.13613892 36.15821838 C18.89667148 36.16562535 18.89667148 36.16562535 20.69277036 36.17318195 C23.96050523 36.18592491 27.22821697 36.19419087 30.4959693 36.20060861 C34.01608858 36.20859819 37.53618605 36.22230091 41.05628967 36.23532104 C47.15841618 36.25710431 53.26054486 36.27524202 59.36268997 36.29092598 C68.18544163 36.31360778 77.00816915 36.34175293 85.83090036 36.37124526 C100.1440922 36.41894192 114.45729389 36.46220047 128.77050781 36.50268555 C142.67709114 36.54202993 156.5836657 36.58345361 170.49023438 36.62768555 C171.7753478 36.63177196 171.7753478 36.63177196 173.08642311 36.63594092 C177.3843104 36.64962022 181.68219756 36.66334053 185.98008466 36.67708123 C221.6533726 36.79107858 257.32667808 36.89706627 293 37 C293 63.07 293 89.14 293 116 C284.3571582 116.01981934 275.71431641 116.03963867 266.80957031 116.06005859 C239.17306551 116.12483143 211.53659475 116.19936153 183.90013202 116.28005161 C179.60920281 116.29257086 175.31827336 116.30500358 171.02734375 116.31738281 C170.17307717 116.31984881 169.31881058 116.3223148 168.43865713 116.32485552 C154.59653693 116.36460679 140.75440855 116.39734364 126.9122645 116.42749982 C112.71474472 116.45858591 98.51725979 116.49718307 84.31977916 116.54279006 C75.5553117 116.57070655 66.79086981 116.59272585 58.02636978 116.60726251 C52.02069939 116.61778397 46.01507842 116.6355844 40.00944522 116.65916704 C36.54167935 116.67256732 33.07398289 116.6827024 29.60618973 116.68421364 C25.85025721 116.68751998 22.09456749 116.70295344 18.33868408 116.7215271 C16.68694431 116.718625 16.68694431 116.718625 15.00183606 116.71566427 C13.99762073 116.72312976 12.9934054 116.73059525 11.95875931 116.73828697 C11.09147807 116.74056529 10.22419684 116.74284362 9.33063436 116.74519098 C6.78160491 117.02387721 5.17416654 117.66043789 3 119 C0.48880343 122.43974831 0.6879478 126.02345611 0.5859375 130.171875 C0.56657135 130.8542926 0.5472052 131.53671021 0.5272522 132.23980713 C0.46768902 134.40974608 0.42116554 136.57973877 0.375 138.75 C0.33679869 140.22528297 0.2977457 141.70054415 0.2578125 143.17578125 C0.16200765 146.78365418 0.07789084 150.39169083 0 154 C-5.11479147 150.24760975 -10.03440525 146.3586774 -14.8125 142.1875 C-18.99681113 138.56646152 -23.20146011 134.98581743 -27.5 131.5 C-32.34596789 127.5662143 -37.08098528 123.51552241 -41.80859375 119.44140625 C-45.33317903 116.41041716 -48.89048832 113.43007419 -52.5 110.5 C-57.34151899 106.56982576 -62.07262391 102.52333927 -66.79541016 98.45239258 C-71.30586533 94.5729048 -75.89279935 90.79675327 -80.51171875 87.046875 C-84.07952273 84.11197816 -87.55120297 81.07328331 -91 78 C-89.68904505 75.04688061 -88.3658972 73.17235391 -85.91015625 71.08203125 C-85.29648193 70.55472412 -84.68280762 70.02741699 -84.05053711 69.48413086 C-83.39448486 68.93249268 -82.73843262 68.38085449 -82.0625 67.8125 C-81.38517822 67.23443604 -80.70785645 66.65637207 -80.01000977 66.06079102 C-75.32572668 62.07663017 -70.57839885 58.17242099 -65.80078125 54.30078125 C-61.92833207 51.11964796 -58.13271217 47.85246445 -54.33398438 44.58398438 C-48.78892833 39.81293833 -43.20716321 35.08651595 -37.61767578 30.36767578 C-35.97091021 28.97540583 -34.32689933 27.57994527 -32.68359375 26.18359375 C-26.74091166 21.13673184 -20.76792842 16.13424914 -14.71875 11.21484375 C-12.7746341 9.63105968 -10.83737728 8.04084677 -8.90625 6.44140625 C-7.9059375 5.61511719 -6.905625 4.78882813 -5.875 3.9375 C-4.96492188 3.18339844 -4.05484375 2.42929687 -3.1171875 1.65234375 C-1 0 -1 0 0 0 Z " fill="#A8C2F5" transform="translate(114,330)"/>
<path d="M0 0 C4.53798263 1.25413338 7.69791852 4.52547414 11.1484375 7.59375 C12.24538122 8.53620411 13.3444802 9.47615338 14.4453125 10.4140625 C16.86242554 12.47513816 19.27142934 14.54515057 21.67578125 16.62109375 C24.60607465 19.14180205 27.58106034 21.59958339 30.5859375 24.03125 C35.69071593 28.17371379 40.64466432 32.47494099 45.59912109 36.79443359 C50.11078483 40.71876658 54.70178256 44.52809037 59.34765625 48.29296875 C63.8284137 51.97381413 68.21002936 55.76888193 72.60546875 59.55078125 C75.95986378 62.43605575 79.33135739 65.30054062 82.7109375 68.15625 C83.50927002 68.83083252 83.50927002 68.83083252 84.32373047 69.51904297 C85.3955709 70.42443442 86.46751076 71.32970817 87.53955078 72.23486328 C89.70195468 74.06125784 91.86264052 75.8896781 94.02319336 77.71826172 C95.10070711 78.63019089 96.17834248 79.54197638 97.25610352 80.45361328 C100.06575316 82.83025585 102.87383288 85.20872152 105.6796875 87.58984375 C106.26041016 88.08226563 106.84113281 88.5746875 107.43945312 89.08203125 C108.54279572 90.01766577 109.64569285 90.95382597 110.74804688 91.890625 C113.12076181 93.90181231 115.50703042 95.87315365 117.9609375 97.78515625 C121.09972799 100.38026339 121.1136469 101.24004557 121.5234375 105.40625 C121.671875 107.42578125 121.671875 107.42578125 121.1484375 109.59375 C118.9453125 112.05859375 118.9453125 112.05859375 116.1484375 114.59375 C114.90707031 115.76164062 114.90707031 115.76164062 113.640625 116.953125 C108.2531443 121.87422677 102.7649609 126.60219909 97.08984375 131.1875 C93.77455773 133.89960649 90.51974073 136.6748078 87.2734375 139.46875 C81.12833584 144.75645409 74.95157876 150.00487092 68.75732422 155.23486328 C66.05271461 157.51921186 63.35071623 159.80664508 60.6484375 162.09375 C59.56511651 163.01043126 58.48178318 163.92709793 57.3984375 164.84375 C56.8621875 165.2975 56.3259375 165.75125 55.7734375 166.21875 C54.1484375 167.59375 52.5234375 168.96875 50.8984375 170.34375 C50.36202637 170.79766113 49.82561523 171.25157227 49.27294922 171.71923828 C48.19134229 172.63439413 47.10963681 173.5494335 46.02783203 174.46435547 C43.29225811 176.77818478 40.55851276 179.09411471 37.828125 181.4140625 C31.93184674 186.4203365 25.99824801 191.37048726 19.99609375 196.25 C16.08498203 199.46902199 12.22985342 202.75293943 8.38671875 206.05273438 C4.12083494 209.69344556 1.9591613 210.70243955 -3.68359375 211.1171875 C-7.2727031 210.25062776 -8.60749352 208.48496181 -10.8515625 205.59375 C-11.53729099 202.28745764 -11.434757 199.06362973 -11.33984375 195.69921875 C-11.33276901 194.75186356 -11.32569427 193.80450836 -11.31840515 192.82844543 C-11.29048584 189.81189979 -11.22775165 186.7972316 -11.1640625 183.78125 C-11.13897646 181.73244874 -11.11616383 179.6836183 -11.09570312 177.63476562 C-11.04066709 172.62037379 -10.95441106 167.60737986 -10.8515625 162.59375 C-11.75963954 162.59602832 -11.75963954 162.59602832 -12.68606156 162.59835267 C-48.55153379 162.68782949 -84.41698684 162.75647826 -120.28254743 162.79801132 C-124.58720954 162.80301425 -128.89187143 162.80819153 -133.1965332 162.81347656 C-134.05352809 162.8145258 -134.91052298 162.81557505 -135.79348741 162.81665608 C-149.67701027 162.83406999 -163.56046701 162.8656131 -177.44395062 162.90236118 C-191.68551692 162.9397432 -205.92704854 162.96198005 -220.16866189 162.97010398 C-228.9593133 162.97559745 -237.74977781 162.99295936 -246.54037169 163.02541587 C-252.56519721 163.04652997 -258.58992585 163.05295711 -264.61478569 163.04775551 C-268.09291605 163.04518885 -271.5707194 163.04917352 -275.04879189 163.0705719 C-278.81767825 163.09038759 -282.5857561 163.08571894 -286.35466003 163.07476807 C-288.00786696 163.09224512 -288.00786696 163.09224512 -289.69447201 163.11007524 C-297.09009783 163.05174029 -297.09009783 163.05174029 -301.01978111 160.68819427 C-303.88409418 157.41316148 -303.97843223 154.68458419 -303.96508789 150.46777344 C-303.96496704 149.65614746 -303.96484619 148.84452148 -303.96472168 148.00830078 C-303.95960571 147.16509277 -303.95448975 146.32188477 -303.94921875 145.453125 C-303.94821167 144.6708252 -303.94720459 143.88852539 -303.94616699 143.08251953 C-303.94094819 140.16958137 -303.92698693 137.25666416 -303.9140625 134.34375 C-303.8934375 127.82625 -303.8728125 121.30875 -303.8515625 114.59375 C-326.6215625 114.59375 -349.3915625 114.59375 -372.8515625 114.59375 C-372.83061523 121.41377686 -372.80966797 128.23380371 -372.78808594 135.26049805 C-372.72389744 157.07751257 -372.67939757 178.89453183 -372.64730118 200.71161644 C-372.64229831 204.09998086 -372.63712102 207.48834499 -372.63183594 210.87670898 C-372.6307867 211.55127637 -372.62973745 212.22584376 -372.62865642 212.92085258 C-372.6112472 223.84594914 -372.57970671 234.77096158 -372.54295132 245.69600823 C-372.5055562 256.90461756 -372.48362913 268.11318483 -372.47520852 279.32185966 C-372.46998687 285.61826413 -372.45768651 291.91447775 -372.42864227 298.21082115 C-372.40153814 304.13444715 -372.39310747 310.05780326 -372.39913177 315.98148537 C-372.39802931 318.15796499 -372.3900459 320.33445343 -372.3747406 322.51087952 C-372.35489134 325.47846792 -372.35960516 328.44503222 -372.37054443 331.41264343 C-372.35889307 332.27743354 -372.3472417 333.14222365 -372.33523726 334.03321952 C-372.37576668 338.09014656 -372.53670091 340.09605075 -374.75662613 343.60506916 C-377.89543657 346.5846786 -377.89543657 346.5846786 -380.91015625 346.61328125 C-381.69519531 346.54496094 -382.48023438 346.47664063 -383.2890625 346.40625 C-384.46275391 346.32310547 -384.46275391 346.32310547 -385.66015625 346.23828125 C-387.8515625 345.59375 -387.8515625 345.59375 -389.46387482 344.15088558 C-391.60005996 340.21447028 -391.27155264 336.44631702 -391.24597168 332.03504944 C-391.25206278 331.055107 -391.25815389 330.07516456 -391.26442957 329.0655269 C-391.2811154 325.77281578 -391.27627573 322.480489 -391.27148438 319.18774414 C-391.27882142 316.83076066 -391.28740658 314.47378079 -391.29714966 312.11680603 C-391.31941195 305.70778898 -391.32229399 299.29890031 -391.32040215 292.8898499 C-391.31961378 288.88831085 -391.32451679 284.8867854 -391.33088684 280.885252 C-391.33298602 279.54111415 -391.33508362 278.19697631 -391.33717966 276.85283846 C-391.33822319 276.18383945 -391.33926672 275.51484044 -391.34034187 274.82556873 C-391.35924646 262.17150402 -391.35819331 249.51749728 -391.35137254 236.86342429 C-391.34579627 225.28541656 -391.36662553 213.70763005 -391.39973301 202.12967402 C-391.4334599 190.24290372 -391.44863965 178.35623943 -391.44401598 166.46942037 C-391.44177034 159.79526295 -391.44748588 153.12128047 -391.47190857 146.44716072 C-391.49411149 140.17210765 -391.49235127 133.89751618 -391.47198105 127.62246132 C-391.46855966 125.31698501 -391.47370832 123.01147801 -391.48796463 120.70604324 C-391.50606053 117.5632965 -391.49347899 114.42213183 -391.47302246 111.2794342 C-391.48554031 110.3628993 -391.49805816 109.44636439 -391.51095533 108.5020557 C-391.44892591 104.06999047 -391.28324119 102.16785812 -388.54486561 98.52597427 C-384.97588449 95.96552279 -381.98891752 95.92451581 -377.7565918 96.02612305 C-376.95606888 96.02539291 -376.15554596 96.02466278 -375.33076477 96.02391052 C-372.69507153 96.02738315 -370.06116421 96.06622666 -367.42578125 96.10546875 C-365.59447698 96.11479808 -363.76316021 96.12191363 -361.93183899 96.12690735 C-357.11959173 96.14596774 -352.30810302 96.19506016 -347.49615479 96.25042725 C-342.58282736 96.30164049 -337.66937697 96.32442582 -332.75585938 96.34960938 C-323.12076108 96.40317991 -313.48622495 96.48848106 -303.8515625 96.59375 C-303.86727295 95.37792236 -303.8829834 94.16209473 -303.89916992 92.90942383 C-303.95355051 88.39012297 -303.98794222 83.87085094 -304.01635742 79.35131836 C-304.03142551 77.39684177 -304.05188374 75.44239888 -304.07788086 73.48803711 C-304.11435115 70.67553377 -304.13130872 67.86347826 -304.14453125 65.05078125 C-304.16001511 64.17976273 -304.17549896 63.3087442 -304.19145203 62.41133118 C-304.19276698 57.65000298 -303.99921284 54.42921511 -300.8515625 50.59375 C-297.60689685 48.43063957 -296.74278228 48.34439002 -293.00023365 48.34765434 C-291.49167214 48.3416812 -291.49167214 48.3416812 -289.95263463 48.33558738 C-288.844671 48.34141307 -287.73670736 48.34723875 -286.59516907 48.35324097 C-285.42062627 48.35153212 -284.24608346 48.34982327 -283.03594846 48.34806263 C-279.77041603 48.34533232 -276.50504134 48.35160424 -273.23952758 48.36161876 C-269.72012002 48.37023887 -266.20072008 48.36733412 -262.68130493 48.36581421 C-256.58189962 48.36476444 -250.48253703 48.37105059 -244.38314247 48.38228989 C-235.56439922 48.39852955 -226.74567667 48.40375132 -217.92692008 48.40626587 C-203.61980675 48.41064539 -189.31271619 48.42396144 -175.00561523 48.44287109 C-161.10587681 48.46122326 -147.20614457 48.47538301 -133.30639648 48.48388672 C-132.44991692 48.48441217 -131.59343736 48.48493761 -130.71100388 48.48547898 C-126.41438737 48.48808902 -122.11777082 48.49061644 -117.82115424 48.49310279 C-82.16460742 48.51384328 -46.50808706 48.54907578 -10.8515625 48.59375 C-10.87774658 47.31733643 -10.90393066 46.04092285 -10.9309082 44.72583008 C-11.02151666 39.9830076 -11.07885077 35.24026138 -11.1262207 30.49682617 C-11.15134056 28.44526294 -11.18544286 26.39378899 -11.22875977 24.3425293 C-11.28952252 21.39088909 -11.31779742 18.4404335 -11.33984375 15.48828125 C-11.36565018 14.57351517 -11.3914566 13.65874908 -11.41804504 12.71626282 C-11.42002027 8.21556688 -11.32345433 6.22499626 -8.55541992 2.5222168 C-5.64237055 0.44454844 -3.60213153 -0.26781647 0 0 Z M7.1484375 28.59375 C7.13385498 29.47635498 7.11927246 30.35895996 7.10424805 31.26831055 C7.04301683 34.55813643 6.9688342 37.8471493 6.88598633 41.13647461 C6.85283193 42.55726202 6.82477058 43.97817813 6.80200195 45.39916992 C6.76827903 47.4476582 6.71596005 49.4949772 6.66015625 51.54296875 C6.63397217 52.77362061 6.60778809 54.00427246 6.58081055 55.2722168 C6.0809576 59.11213741 4.90922339 61.83296411 2.1484375 64.59375 C0.61083334 64.69564815 -0.93144329 64.7277314 -2.47241306 64.7324152 C-3.98022652 64.74062687 -3.98022652 64.74062687 -5.51850086 64.74900442 C-7.19502127 64.75047158 -7.19502127 64.75047158 -8.90541077 64.75196838 C-10.08232827 64.75690636 -11.25924578 64.76184434 -12.47182745 64.76693195 C-15.75323065 64.77968913 -19.03459097 64.78794626 -22.31600916 64.79435861 C-25.84909774 64.80233998 -29.3821645 64.81604549 -32.91523743 64.82907104 C-39.04139081 64.85086603 -45.16754636 64.86899941 -51.29371834 64.88467598 C-60.15123507 64.90734717 -69.00872768 64.93549375 -77.86622398 64.96499526 C-92.235431 65.01270499 -106.60464787 65.05595998 -120.97387695 65.09643555 C-134.93579881 65.1357733 -148.89771191 65.17719537 -162.85961914 65.22143555 C-163.71961114 65.22415982 -164.57960315 65.22688409 -165.46565551 65.22969092 C-169.77979751 65.24337011 -174.09393937 65.25709044 -178.40808117 65.27083123 C-214.2225578 65.38484911 -250.03705193 65.49082998 -285.8515625 65.59375 C-285.8515625 91.66375 -285.8515625 117.73375 -285.8515625 144.59375 C-277.24425049 144.61356934 -268.63693848 144.63338867 -259.76879883 144.65380859 C-232.24082115 144.71859171 -204.71287761 144.79312254 -177.18494212 144.87380161 C-172.91032296 144.88632075 -168.63570355 144.89875348 -164.36108398 144.91113281 C-163.51007033 144.91359881 -162.65905667 144.9160648 -161.78225472 144.91860552 C-147.99577559 144.95834864 -134.20928824 144.99108911 -120.4227852 145.02124982 C-106.28063115 145.05234415 -92.13851201 145.09094488 -77.9963972 145.13654006 C-69.26724855 145.16444607 -60.5381255 145.18646994 -51.80894419 145.20101251 C-45.82616016 145.21154007 -39.84342564 145.22934703 -33.86067889 145.25291704 C-30.40696597 145.26630732 -26.95332256 145.27645087 -23.49958229 145.27796364 C-19.7571367 145.2812741 -16.01493367 145.29671897 -12.27253723 145.3152771 C-11.17818117 145.31334237 -10.08382512 145.31140763 -8.95630676 145.30941427 C-7.95358377 145.31687976 -6.95086079 145.32434525 -5.91775227 145.33203697 C-5.05388851 145.33431529 -4.19002476 145.33659362 -3.29998332 145.33894098 C-0.49715174 145.6306338 1.62558712 146.34837569 4.1484375 147.59375 C5.64305632 150.58298764 5.50535508 153.72117801 5.68359375 157.0078125 C5.72657089 157.73745209 5.76954803 158.46709167 5.81382751 159.21884155 C5.95030316 161.55192748 6.08068889 163.88530895 6.2109375 166.21875 C6.30233385 167.79950238 6.39412576 169.38023193 6.48632812 170.9609375 C6.71162409 174.8382917 6.93145852 178.71592185 7.1484375 182.59375 C12.46605016 178.70924048 17.52572281 174.63886276 22.4609375 170.28125 C27.67542189 165.71801084 32.9543103 161.26358555 38.33984375 156.90234375 C41.65142116 154.18031003 44.90159866 151.39238676 48.1484375 148.59375 C52.25078903 145.05769774 56.37645427 141.56511829 60.5859375 138.15625 C65.02083137 134.55738914 69.34410777 130.84642234 73.6484375 127.09375 C79.71926133 121.80113862 85.88890479 116.66249618 92.1484375 111.59375 C94.15495979 109.93466055 96.15272276 108.26583532 98.1484375 106.59375 C96.58951052 102.43983898 93.55120181 100.12462341 90.2109375 97.40625 C89.62755615 96.92212646 89.0441748 96.43800293 88.44311523 95.93920898 C86.68444772 94.48294328 84.91807596 93.03665475 83.1484375 91.59375 C82.2203125 90.83578125 81.2921875 90.0778125 80.3359375 89.296875 C78.56435237 87.85218951 76.79220346 86.40819514 75.01953125 84.96484375 C70.52160611 81.25023074 66.10892862 77.43782956 61.6875 73.6328125 C58.35678655 70.76778045 55.00617109 67.92702978 51.6484375 65.09375 C47.68780831 61.75174257 43.74384597 58.39162263 39.81591797 55.01123047 C34.23693436 50.21035626 28.6155666 45.47650351 22.8984375 40.83984375 C20.86476756 39.17882072 18.84540353 37.50623724 16.8359375 35.81640625 C16.28373535 35.35250488 15.7315332 34.88860352 15.16259766 34.41064453 C13.60171797 33.09712498 12.04298888 31.7810511 10.484375 30.46484375 C8.5171771 28.4895546 8.5171771 28.4895546 7.1484375 28.59375 Z " fill="#558EFA" transform="translate(390.8515625,-0.59375)"/>
<path d="M0 0 C0.01458252 0.88260498 0.02916504 1.76520996 0.04418945 2.67456055 C0.10542067 5.96438643 0.1796033 9.2533993 0.26245117 12.54272461 C0.29560557 13.96351202 0.32366692 15.38442813 0.34643555 16.80541992 C0.38015847 18.8539082 0.43247745 20.9012272 0.48828125 22.94921875 C0.51446533 24.17987061 0.54064941 25.41052246 0.56762695 26.6784668 C1.02959973 30.22738812 1.86544547 32.1568715 4 35 C6.37534709 36.18767354 7.84124076 36.13745938 10.49246216 36.15821838 C11.43759674 36.1680072 12.38273132 36.17779602 13.35650635 36.18788147 C14.91664459 36.19651466 14.91664459 36.19651466 16.50830078 36.20532227 C17.60099274 36.21522186 18.69368469 36.22512146 19.81948853 36.23532104 C23.44474086 36.2670031 27.07000632 36.29171998 30.6953125 36.31640625 C33.20352527 36.33696999 35.71173452 36.3579663 38.21994019 36.37937927 C44.1555654 36.42900433 50.09121383 36.4742541 56.02688873 36.51740164 C63.44634784 36.57160175 70.86574876 36.63256374 78.28515625 36.69335938 C91.52339793 36.80101418 104.76167888 36.90263076 118 37 C95.89126653 59.38272186 62.92076209 75.11074004 35 89 C34.15743652 89.42716309 33.31487305 89.85432617 32.44677734 90.29443359 C13.13982209 100.07474523 -7.2849149 107.49861474 -28 113.6875 C-29.13308594 114.026604 -30.26617187 114.36570801 -31.43359375 114.71508789 C-40.7507334 117.40573983 -40.7507334 117.40573983 -45 117 C-47.3488412 115.30064898 -49.3812616 113.6377125 -51.5 111.6875 C-52.74561739 110.58019307 -53.9917222 109.47343424 -55.23828125 108.3671875 C-55.86557129 107.80354492 -56.49286133 107.23990234 -57.13916016 106.65917969 C-59.94459115 104.15777467 -62.81241018 101.73314991 -65.6875 99.3125 C-66.22076904 98.86124756 -66.75403809 98.40999512 -67.3034668 97.94506836 C-71.65195396 94.27151859 -76.06136094 90.67504718 -80.4765625 87.08203125 C-84.05268947 84.13144971 -87.53892716 81.0842225 -91 78 C-89.68904505 75.04688061 -88.3658972 73.17235391 -85.91015625 71.08203125 C-85.29648193 70.55472412 -84.68280762 70.02741699 -84.05053711 69.48413086 C-83.39448486 68.93249268 -82.73843262 68.38085449 -82.0625 67.8125 C-81.38517822 67.23443604 -80.70785645 66.65637207 -80.01000977 66.06079102 C-75.32572668 62.07663017 -70.57839885 58.17242099 -65.80078125 54.30078125 C-61.92833207 51.11964796 -58.13271217 47.85246445 -54.33398438 44.58398438 C-48.78892833 39.81293833 -43.20716321 35.08651595 -37.61767578 30.36767578 C-35.97091021 28.97540583 -34.32689933 27.57994527 -32.68359375 26.18359375 C-26.74091166 21.13673184 -20.76792842 16.13424914 -14.71875 11.21484375 C-12.7746341 9.63105968 -10.83737728 8.04084677 -8.90625 6.44140625 C-7.9059375 5.61511719 -6.905625 4.78882813 -5.875 3.9375 C-4.96492188 3.18339844 -4.05484375 2.42929687 -3.1171875 1.65234375 C-1 0 -1 0 0 0 Z " fill="#E7ECF9" transform="translate(114,330)"/>
<path d="M0 0 C4.52667357 2.46909468 8.16546797 5.60188652 12 9 C13.33800951 10.17248256 14.67656078 11.34434714 16.015625 12.515625 C17.01819336 13.39444336 17.01819336 13.39444336 18.04101562 14.29101562 C20.92159344 16.80398232 23.83053341 19.28239765 26.75 21.75 C27.54954102 22.42579102 27.54954102 22.42579102 28.36523438 23.11523438 C32.58815533 26.67329201 36.86183337 30.16672111 41.14453125 33.65234375 C46.48130877 38.04003634 51.73738641 42.52385012 57 47 C55.49775154 50.73892951 53.39834702 52.54093605 50.25 55 C45.79884672 58.54465209 41.43309349 62.15782646 37.125 65.875 C35.93116574 66.90254845 34.73715472 67.92989157 33.54296875 68.95703125 C32.95306152 69.46443848 32.3631543 69.9718457 31.75537109 70.49462891 C27.39727286 74.23204667 23.00454473 77.92877651 18.61767578 81.63232422 C16.97091021 83.02459417 15.32689933 84.42005473 13.68359375 85.81640625 C8.67765348 90.06740059 3.6595962 94.29564292 -1.4375 98.4375 C-5.6604144 101.87475591 -9.81081015 105.38611728 -13.9375 108.9375 C-18.54276299 112.89873682 -23.15788124 116.84678685 -27.8125 120.75 C-28.78832031 121.56984375 -29.76414062 122.3896875 -30.76953125 123.234375 C-33 125 -33 125 -34 125 C-35.02472362 114.64297197 -35.1050173 104.39671302 -35 94 C-34.67 94 -34.34 94 -34 94 C-33.67 98.62 -33.34 103.24 -33 108 C-16.82713268 73.44066061 -6.20447796 37.57996815 0 0 Z " fill="#A8C2F5" transform="translate(432,57)"/>
<path d="M0 0 C8.91 0 17.82 0 27 0 C27 48.51 27 97.02 27 147 C18.09 147 9.18 147 0 147 C0 98.49 0 49.98 0 0 Z " fill="#E7ECF9" transform="translate(245,203)"/>
<path d="M0 0 C8.91 0 17.82 0 27 0 C27 30.69 27 61.38 27 93 C18.09 93 9.18 93 0 93 C0 62.31 0 31.62 0 0 Z " fill="#A8C2F5" transform="translate(328,257)"/>
<path d="M0 0 C8.91 0 17.82 0 27 0 C27 19.14 27 38.28 27 58 C18.09 58 9.18 58 0 58 C0 38.86 0 19.72 0 0 Z " fill="#E7ECF9" transform="translate(162,292)"/>
<path d="M0 0 C4.95 0 9.9 0 15 0 C10.71544368 6.64106229 6.21073439 13.0430984 1 19 C0.67 19 0.34 19 0 19 C0 12.73 0 6.46 0 0 Z " fill="#E3EAF9" transform="translate(328,257)"/>
<path d="M0 0 C0.33 0 0.66 0 1 0 C1 4.95 1 9.9 1 15 C-4.61 15 -10.22 15 -16 15 C-12.81063222 11.01329027 -10.22324762 8.36188996 -6.3125 5.25 C-5.33925781 4.47140625 -4.36601562 3.6928125 -3.36328125 2.890625 C-2.58339844 2.26671875 -1.80351562 1.6428125 -1 1 C-0.67 0.67 -0.34 0.34 0 0 Z " fill="#AAC3F5" transform="translate(271,335)"/>
</svg>
